<svg id="visual" viewBox="0 0 900 450" width="900" height="450" xmlns="http://www.w3.org/2000/svg" xmlns:xlink="http://www.w3.org/1999/xlink" version="1.1"><path d="M0 42L13.7 45C27.3 48 54.7 54 82 55.5C109.3 57 136.7 54 163.8 57C191 60 218 69 245.2 67.5C272.3 66 299.7 54 327 45.7C354.3 37.3 381.7 32.7 409 38.7C436.3 44.7 463.7 61.3 491 68.8C518.3 76.3 545.7 74.7 573 73.8C600.3 73 627.7 73 654.8 66.3C682 59.7 709 46.3 736.2 45.7C763.3 45 790.7 57 818 60C845.3 63 872.7 57 886.3 54L900 51L900 0L886.3 0C872.7 0 845.3 0 818 0C790.7 0 763.3 0 736.2 0C709 0 682 0 654.8 0C627.7 0 600.3 0 573 0C545.7 0 518.3 0 491 0C463.7 0 436.3 0 409 0C381.7 0 354.3 0 327 0C299.7 0 272.3 0 245.2 0C218 0 191 0 163.8 0C136.7 0 109.3 0 82 0C54.7 0 27.3 0 13.7 0L0 0Z" fill="#6198ff"></path><path d="M0 235L13.7 228.3C27.3 221.7 54.7 208.3 82 209.8C109.3 211.3 136.7 227.7 163.8 228.3C191 229 218 214 245.2 203.5C272.3 193 299.7 187 327 175.8C354.3 164.7 381.7 148.3 409 158.2C436.3 168 463.7 204 491 215.2C518.3 226.3 545.7 212.7 573 205.8C600.3 199 627.7 199 654.8 199.8C682 200.7 709 202.3 736.2 193.3C763.3 184.3 790.7 164.7 818 155.7C845.3 146.7 872.7 148.3 886.3 149.2L900 150L900 49L886.3 52C872.7 55 845.3 61 818 58C790.7 55 763.3 43 736.2 43.7C709 44.3 682 57.7 654.8 64.3C627.7 71 600.3 71 573 71.8C545.7 72.7 518.3 74.3 491 66.8C463.7 59.3 436.3 42.7 409 36.7C381.7 30.7 354.3 35.3 327 43.7C299.7 52 272.3 64 245.2 65.5C218 67 191 58 163.8 55C136.7 52 109.3 55 82 53.5C54.7 52 27.3 46 13.7 43L0 40Z" fill="#3c80ff"></path><path d="M0 334L13.7 325C27.3 316 54.7 298 82 297.3C109.3 296.7 136.7 313.3 163.8 308.8C191 304.3 218 278.7 245.2 271.2C272.3 263.7 299.7 274.3 327 266.2C354.3 258 381.7 231 409 230.2C436.3 229.3 463.7 254.7 491 265.2C518.3 275.7 545.7 271.3 573 268.3C600.3 265.3 627.7 263.7 654.8 266.7C682 269.7 709 277.3 736.2 278.2C763.3 279 790.7 273 818 263.2C845.3 253.3 872.7 239.7 886.3 232.8L900 226L900 148L886.3 147.2C872.7 146.3 845.3 144.7 818 153.7C790.7 162.7 763.3 182.3 736.2 191.3C709 200.3 682 198.7 654.8 197.8C627.7 197 600.3 197 573 203.8C545.7 210.7 518.3 224.3 491 213.2C463.7 202 436.3 166 409 156.2C381.7 146.3 354.3 162.7 327 173.8C299.7 185 272.3 191 245.2 201.5C218 212 191 227 163.8 226.3C136.7 225.7 109.3 209.3 82 207.8C54.7 206.3 27.3 219.7 13.7 226.3L0 233Z" fill="#0066ff"></path><path d="M0 375L13.7 369.7C27.3 364.3 54.7 353.7 82 354.3C109.3 355 136.7 367 163.8 361C191 355 218 331 245.2 325C272.3 319 299.7 331 327 324.3C354.3 317.7 381.7 292.3 409 291.7C436.3 291 463.7 315 491 329.2C518.3 343.3 545.7 347.7 573 345.3C600.3 343 627.7 334 654.8 336.3C682 338.7 709 352.3 736.2 348.7C763.3 345 790.7 324 818 312.7C845.3 301.3 872.7 299.7 886.3 298.8L900 298L900 224L886.3 230.8C872.7 237.7 845.3 251.3 818 261.2C790.7 271 763.3 277 736.2 276.2C709 275.3 682 267.7 654.8 264.7C627.7 261.7 600.3 263.3 573 266.3C545.7 269.3 518.3 273.7 491 263.2C463.7 252.7 436.3 227.3 409 228.2C381.7 229 354.3 256 327 264.2C299.7 272.3 272.3 261.7 245.2 269.2C218 276.7 191 302.3 163.8 306.8C136.7 311.3 109.3 294.7 82 295.3C54.7 296 27.3 314 13.7 323L0 332Z" fill="#0059dd"></path><path d="M0 451L13.7 451C27.3 451 54.7 451 82 451C109.3 451 136.7 451 163.8 451C191 451 218 451 245.2 451C272.3 451 299.7 451 327 451C354.3 451 381.7 451 409 451C436.3 451 463.7 451 491 451C518.3 451 545.7 451 573 451C600.3 451 627.7 451 654.8 451C682 451 709 451 736.2 451C763.3 451 790.7 451 818 451C845.3 451 872.7 451 886.3 451L900 451L900 296L886.3 296.8C872.7 297.7 845.3 299.3 818 310.7C790.7 322 763.3 343 736.2 346.7C709 350.3 682 336.7 654.8 334.3C627.7 332 600.3 341 573 343.3C545.7 345.7 518.3 341.3 491 327.2C463.7 313 436.3 289 409 289.7C381.7 290.3 354.3 315.7 327 322.3C299.7 329 272.3 317 245.2 323C218 329 191 353 163.8 359C136.7 365 109.3 353 82 352.3C54.7 351.7 27.3 362.3 13.7 367.7L0 373Z" fill="#004cbb"></path></svg>